<?xml version="1.0" encoding="UTF-8" ?>
<!DOCTYPE svg PUBLIC "-//W3C//DTD SVG 1.1//EN" "http://www.w3.org/Graphics/SVG/1.1/DTD/svg11.dtd">
<svg width="498pt" height="172pt" viewBox="0 0 498 172" version="1.1" xmlns="http://www.w3.org/2000/svg">
<g id="#ffffffff">
</g>
<g id="#010101ff">
<path fill="#010101" opacity="1.00" d=" M 462.48 30.82 C 465.53 29.95 468.80 29.99 471.93 30.47 C 477.57 31.60 482.62 36.96 481.82 42.97 C 482.13 51.31 472.45 56.59 465.03 54.83 C 459.47 54.08 454.51 49.67 453.64 44.05 C 452.85 38.24 457.02 32.57 462.48 30.82 M 464.38 32.45 C 459.50 33.70 455.24 38.61 456.31 43.87 C 457.47 53.53 472.11 56.04 477.54 48.51 C 480.86 44.81 480.31 38.68 476.60 35.45 C 473.57 31.99 468.61 31.77 464.38 32.45 Z" />
<path fill="#010101" opacity="1.00" d=" M 463.45 35.58 C 466.43 35.63 469.72 34.95 472.35 36.75 C 473.52 38.89 472.70 41.29 471.27 43.07 C 472.16 45.18 472.97 47.32 473.69 49.50 C 473.17 49.53 472.14 49.58 471.63 49.61 C 470.90 47.57 470.16 45.55 469.32 43.56 C 468.36 43.54 466.45 43.49 465.49 43.46 C 465.50 45.51 465.52 47.56 465.54 49.61 C 465.01 49.60 463.95 49.56 463.42 49.55 C 463.43 44.89 463.45 40.23 463.45 35.58 M 465.51 37.75 C 465.49 39.34 465.52 40.93 465.60 42.51 C 467.29 42.14 468.98 41.75 470.68 41.36 C 470.69 40.12 470.71 38.88 470.71 37.64 C 468.95 37.37 466.82 35.76 465.51 37.75 Z" />
<path fill="#010101" opacity="1.00" d=" M 19.52 61.41 C 27.74 61.36 35.97 61.30 44.19 61.49 C 47.10 73.16 50.06 84.83 53.21 96.45 C 57.07 85.00 59.60 73.13 62.81 61.48 C 70.79 61.42 78.79 61.40 86.77 61.52 C 87.98 62.61 87.16 64.52 87.42 65.95 C 87.32 84.19 87.33 102.43 87.26 120.67 C 82.16 120.74 77.06 120.70 71.96 120.69 C 71.18 113.13 72.36 105.57 72.17 98.00 C 72.13 90.75 72.27 83.49 72.12 76.24 C 67.75 90.92 64.17 105.82 60.18 120.61 C 55.53 120.67 50.88 120.64 46.23 120.64 C 42.43 106.06 39.13 91.33 34.81 76.89 C 34.52 91.44 34.65 106.01 34.57 120.57 C 29.53 120.58 24.49 120.59 19.44 120.55 C 19.36 100.83 19.60 81.12 19.52 61.41 Z" />
<path fill="#010101" opacity="1.00" d=" M 115.68 61.49 C 122.43 61.56 129.17 61.48 135.92 61.55 C 141.01 75.33 146.28 89.05 151.43 102.81 C 153.58 108.92 156.34 114.83 157.99 121.11 C 151.56 121.09 145.14 120.75 138.71 120.83 C 137.77 117.71 136.75 114.62 136.08 111.43 C 128.93 111.14 121.76 111.34 114.60 111.30 C 113.69 114.41 112.75 117.51 111.95 120.65 C 105.61 120.92 99.26 120.76 92.92 120.67 C 100.34 100.88 108.05 81.20 115.68 61.49 M 118.93 98.35 C 123.26 98.36 127.59 98.39 131.93 98.39 C 130.15 91.22 127.31 84.36 125.78 77.13 C 122.97 84.02 121.16 91.26 118.93 98.35 Z" />
<path fill="#010101" opacity="1.00" d=" M 189.39 61.66 C 195.29 61.66 201.19 61.60 207.10 61.67 C 207.38 62.00 207.95 62.65 208.23 62.98 C 208.25 72.99 208.21 83.00 208.16 93.01 C 207.74 99.81 208.02 107.15 204.29 113.17 C 199.90 119.68 191.64 122.52 184.05 122.31 C 177.99 122.13 171.50 121.27 166.61 117.37 C 161.83 113.28 159.90 106.88 159.43 100.80 C 165.38 100.50 171.23 99.29 177.18 99.00 C 177.49 101.84 177.56 105.12 179.81 107.22 C 182.38 109.38 187.04 108.48 188.24 105.21 C 189.07 102.92 189.40 100.47 189.37 98.03 C 189.34 85.91 189.49 73.78 189.39 61.66 Z" />
<path fill="#010101" opacity="1.00" d=" M 220.45 61.70 C 237.04 61.72 253.63 61.74 270.22 61.75 C 270.15 66.07 270.09 70.39 270.17 74.72 C 260.10 74.90 250.02 74.60 239.96 74.75 C 237.51 76.90 239.23 80.77 238.73 83.66 C 248.33 84.81 258.04 83.96 267.69 84.25 C 267.69 88.27 267.69 92.30 267.60 96.33 C 257.98 96.32 248.36 96.20 238.73 96.34 C 238.72 100.11 238.72 103.88 238.70 107.64 C 249.40 107.82 260.10 107.69 270.80 107.80 C 270.93 112.31 270.83 116.83 270.93 121.35 C 254.04 121.39 237.15 121.26 220.27 121.30 C 220.29 101.43 220.34 81.56 220.45 61.70 Z" />
<path fill="#010101" opacity="1.00" d=" M 287.26 65.35 C 294.18 60.44 303.00 61.24 311.02 61.41 C 317.42 61.75 324.33 64.48 327.65 70.28 C 329.28 72.82 329.84 75.84 330.57 78.72 C 324.71 79.57 318.77 79.50 312.87 79.75 C 312.21 75.87 309.29 71.95 304.96 72.32 C 301.82 71.84 296.84 72.84 297.34 76.97 C 297.10 79.59 299.99 80.11 301.88 80.81 C 310.23 83.07 319.45 84.02 326.46 89.54 C 334.40 95.82 333.82 108.99 326.61 115.61 C 319.73 122.51 309.15 123.05 299.98 122.38 C 294.05 121.68 287.48 120.37 283.41 115.60 C 279.75 111.85 278.19 106.66 277.48 101.60 C 283.40 101.58 289.27 101.03 295.16 100.53 C 295.92 105.20 298.74 110.55 304.11 110.64 C 308.54 111.49 313.20 109.52 314.63 105.03 C 313.67 102.97 312.83 100.48 310.47 99.66 C 302.59 96.17 293.31 96.16 286.26 90.76 C 277.51 85.13 278.33 70.41 287.26 65.35 Z" />
<path fill="#010101" opacity="1.00" d=" M 337.45 62.27 C 356.36 62.39 375.27 62.19 394.17 62.37 C 394.27 67.33 394.30 72.31 393.63 77.24 C 387.33 77.26 381.04 77.14 374.75 77.29 C 374.70 92.11 374.72 106.93 374.62 121.75 C 368.51 121.69 362.40 121.73 356.29 121.69 C 356.30 106.71 356.30 91.74 356.28 76.76 C 349.99 76.76 343.71 76.76 337.43 76.71 C 337.46 71.89 337.48 67.08 337.45 62.27 Z" />
<path fill="#010101" opacity="1.00" d=" M 79.26 141.41 C 87.24 141.51 95.22 141.40 103.20 141.47 C 103.22 142.18 103.25 143.60 103.27 144.31 C 99.97 144.37 96.68 144.36 93.39 144.37 C 93.40 148.99 93.39 153.61 93.38 158.22 C 92.03 158.27 90.69 158.32 89.34 158.39 C 88.40 153.77 88.83 149.05 88.75 144.37 C 85.56 144.35 82.37 144.35 79.18 144.36 C 79.20 143.62 79.24 142.14 79.26 141.41 Z" />
<path fill="#010101" opacity="1.00" d=" M 109.35 141.45 C 116.44 141.46 123.53 141.41 130.61 141.47 C 130.60 142.43 130.60 143.39 130.59 144.35 C 124.91 144.36 119.23 144.32 113.55 144.38 C 113.55 145.24 113.57 146.95 113.57 147.80 C 116.94 147.79 120.30 147.78 123.66 147.79 C 123.71 148.56 123.80 150.10 123.85 150.87 C 120.43 150.92 117.01 150.94 113.59 150.88 C 113.57 152.31 113.56 153.74 113.57 155.16 C 119.28 155.08 124.99 155.13 130.70 155.13 C 130.68 155.93 130.65 157.53 130.63 158.33 C 123.55 158.31 116.48 158.31 109.41 158.31 C 109.24 152.69 109.31 147.07 109.35 141.45 Z" />
<path fill="#010101" opacity="1.00" d=" M 139.49 145.05 C 139.32 143.44 140.52 141.59 142.25 141.57 C 146.52 141.30 150.80 141.49 155.08 141.44 C 157.24 141.50 159.66 141.20 161.42 142.75 C 161.83 144.30 161.88 145.90 162.03 147.49 C 160.55 147.60 159.07 147.71 157.60 147.81 C 157.59 146.95 157.58 145.22 157.58 144.36 C 152.92 144.35 148.27 144.35 143.62 144.40 C 143.63 147.99 143.63 151.57 143.64 155.16 C 148.28 155.11 152.92 155.07 157.56 155.21 C 157.58 154.23 157.60 152.29 157.61 151.31 C 159.11 151.50 160.61 151.69 162.11 151.88 C 161.91 153.70 161.69 155.52 161.45 157.34 C 156.76 158.90 151.79 158.16 146.95 158.33 C 144.54 158.43 142.09 158.24 139.89 157.14 C 139.06 153.18 139.47 149.07 139.49 145.05 Z" />
<path fill="#010101" opacity="1.00" d=" M 171.39 141.44 C 172.81 141.44 174.24 141.43 175.67 141.43 C 175.68 143.53 175.69 145.63 175.69 147.73 C 181.05 147.82 186.42 147.78 191.78 147.80 C 191.77 145.70 191.75 143.61 191.72 141.51 C 193.21 141.48 194.70 141.45 196.20 141.43 C 196.18 147.05 196.22 152.67 196.19 158.30 C 194.71 158.29 193.24 158.28 191.77 158.27 C 191.76 155.80 191.76 153.33 191.77 150.87 C 186.40 151.01 181.03 150.74 175.66 151.08 C 175.68 153.49 175.68 155.90 175.63 158.31 C 174.23 158.31 172.83 158.31 171.44 158.32 C 171.37 152.69 171.44 147.06 171.39 141.44 Z" />
<path fill="#010101" opacity="1.00" d=" M 243.62 142.70 C 245.71 141.07 248.47 141.54 250.95 141.44 C 256.42 141.49 261.90 141.29 267.36 141.70 C 269.19 145.89 268.35 150.56 268.43 154.99 C 268.42 158.20 264.46 158.41 262.07 158.33 C 255.88 158.04 249.54 159.08 243.51 157.31 C 243.22 152.46 242.86 147.52 243.62 142.70 M 247.41 144.37 C 247.40 147.96 247.41 151.54 247.40 155.13 C 252.98 155.09 258.55 155.14 264.13 155.12 C 264.18 151.54 264.21 147.96 264.14 144.38 C 258.56 144.37 252.98 144.32 247.41 144.37 Z" />
<path fill="#010101" opacity="1.00" d=" M 309.55 141.74 C 315.67 141.09 321.89 141.57 328.04 141.47 C 329.87 141.28 332.36 142.07 332.48 144.23 C 332.67 148.04 332.72 151.89 332.43 155.71 C 332.62 157.68 330.33 157.69 329.00 158.21 C 323.01 158.41 316.99 158.37 310.99 158.21 C 309.65 157.71 307.38 157.67 307.47 155.73 C 307.23 151.43 307.00 147.03 307.69 142.76 C 308.16 142.51 309.09 142.00 309.55 141.74 M 311.51 144.39 C 311.51 147.97 311.50 151.56 311.54 155.15 C 317.17 155.12 322.80 155.07 328.43 155.22 C 328.46 151.61 328.43 148.00 328.50 144.39 C 322.83 144.31 317.17 144.36 311.51 144.39 Z" />
<path fill="#010101" opacity="1.00" d=" M 344.66 141.69 C 350.45 141.27 356.26 141.49 362.07 141.44 C 363.83 141.61 366.01 141.15 367.33 142.65 C 367.68 143.77 368.00 144.90 368.28 146.05 C 367.40 146.21 365.65 146.54 364.78 146.71 C 364.33 146.15 363.43 145.05 362.99 144.50 C 357.93 144.14 352.84 144.43 347.77 144.43 C 347.82 148.02 347.82 151.61 347.78 155.20 C 353.07 155.07 358.35 155.08 363.64 155.17 C 363.65 154.18 363.67 152.20 363.67 151.20 C 360.91 151.18 358.16 151.18 355.40 151.25 C 355.35 150.31 355.29 149.38 355.24 148.45 C 359.58 148.36 363.91 148.37 368.25 148.41 C 368.24 151.42 367.94 154.41 367.46 157.38 C 361.40 159.00 355.09 158.08 348.91 158.32 C 346.78 158.45 343.63 157.63 343.59 155.03 C 343.65 150.58 342.76 145.88 344.66 141.69 Z" />
<path fill="#010101" opacity="1.00" d=" M 373.96 141.47 C 375.77 141.47 377.60 141.33 379.40 141.60 C 382.39 143.47 384.49 146.75 387.86 147.92 C 390.51 145.94 392.75 143.44 395.50 141.58 C 397.18 141.35 398.88 141.47 400.58 141.47 C 397.20 144.99 393.21 147.81 389.51 150.96 C 389.50 153.38 389.49 155.80 389.52 158.22 C 388.13 158.27 386.74 158.32 385.36 158.38 C 384.89 155.43 386.45 151.52 383.50 149.53 C 380.27 146.89 377.03 144.29 373.96 141.47 Z" />
<path fill="#010101" opacity="1.00" d=" M 207.72 141.16 C 209.32 141.50 211.01 141.73 212.37 142.75 C 217.48 146.15 222.53 149.66 227.64 153.06 C 227.79 149.21 227.73 145.35 227.70 141.50 C 229.20 141.49 230.71 141.50 232.22 141.52 C 232.08 147.28 232.62 153.10 231.47 158.80 C 224.32 155.49 218.23 150.31 211.60 146.10 C 211.51 150.17 211.55 154.24 211.51 158.31 C 210.54 158.31 208.62 158.31 207.65 158.31 C 207.64 152.59 207.58 146.87 207.72 141.16 Z" />
<path fill="#010101" opacity="1.00" d=" M 279.58 141.47 C 281.01 141.47 282.44 141.47 283.87 141.47 C 283.83 145.94 283.89 150.41 283.82 154.88 C 289.29 155.35 294.78 154.98 300.26 155.20 C 300.24 155.97 300.20 157.52 300.18 158.29 C 293.32 158.33 286.46 158.30 279.60 158.32 C 279.54 152.70 279.53 147.08 279.58 141.47 Z" />
</g>
<g id="#0e5631ff">
<path fill="#0e5631" opacity="1.00" d=" M 396.50 62.39 C 403.20 62.31 409.91 62.29 416.61 62.46 C 421.22 68.71 424.70 75.77 429.00 82.26 C 433.24 75.75 437.07 68.99 441.28 62.47 C 448.13 62.47 454.99 62.39 461.84 62.57 C 454.75 72.59 448.09 82.91 441.01 92.94 C 439.85 94.81 438.05 96.60 438.29 98.98 C 438.30 106.58 438.25 114.18 438.28 121.77 C 431.98 121.95 425.68 121.86 419.38 121.83 C 419.39 113.87 419.53 105.92 419.45 97.96 C 419.52 96.55 418.45 95.45 417.83 94.28 C 410.69 83.67 403.29 73.22 396.50 62.39 Z" />
</g>
</svg>
